<svg width="30" height="38" viewBox="0 0 30 38" fill="none" xmlns="http://www.w3.org/2000/svg">
<path d="M16.7734 28.0293C17.3256 28.0295 17.7734 28.4771 17.7734 29.0293V36.9961C17.773 37.4156 17.287 37.6476 16.96 37.3848L14.6123 35.4961C14.5453 35.4422 14.4503 35.4369 14.3779 35.4834L11.9961 37.0166C11.6635 37.2307 11.2259 36.9922 11.2256 36.5967V29.0293C11.2256 28.477 11.6733 28.0293 12.2256 28.0293H16.7734ZM27.9336 0C29.0382 0 29.9336 0.895431 29.9336 2V26.0479L29.9297 26.1299C29.8891 26.5565 29.5975 26.9028 29.2158 27C28.7103 28.527 28.6087 29.223 28.6904 29.876C28.739 30.2637 28.8585 30.6799 29.0752 31.2891C29.2652 31.8231 29.6111 32.718 29.9443 33.6689C29.9927 33.8069 30.0079 33.9482 29.9961 34.085C29.9717 34.5801 29.5887 34.9808 29.1006 35.0303L28.999 35.0352H28.0625V35.0371H18.709V33.0361H24.9336C25.0429 33.0361 25.1506 33.029 25.2568 33.0176V33.0342H27.5859C27.445 32.656 27.3194 32.3215 27.1904 31.959C26.9626 31.3185 26.7816 30.7352 26.7051 30.124C26.5871 29.181 26.732 28.2693 27.1074 27.0283H26.0625V27.0264H6.67676V27.0283H4.67676V27.0264C3.32395 27.0266 2.00016 28.242 2 30.0312V30.0361C2 31.6799 3.32209 33.0142 4.96094 33.0352H6.67676V33.0361H10.29V35.0371H4.67676L4.43652 35.0303C2.04238 34.9004 0.123358 32.8434 0.00585938 30.2803L0 30.0312V5C4.38657e-07 2.23858 2.23858 1.75342e-08 5 0H27.9336ZM12.3105 33.0293H13.0156L13.2812 32.2344H14.3662C14.3429 32.1611 14.3102 32.0838 14.2686 32.0039C14.2286 31.9241 14.1749 31.8567 14.1084 31.8018C14.0435 31.7469 13.9626 31.7198 13.8662 31.7197H13.4863L13.4111 31.7295L13.4707 31.6289L13.8965 30.334L13.9414 30.1396L13.9814 30.3242L14.8809 33.0293H15.6211L14.3164 29.3945H13.6162L12.3105 33.0293ZM16.1846 33.0293H16.8799V29.3945H16.1846V33.0293ZM5 2C3.3949 2 2.08421 3.26055 2.00391 4.8457L2 5V25.9277C2.75844 25.36 3.68097 25.0265 4.67676 25.0264H27.9336V2H5ZM6.08008 19.0195C6.85502 19.0195 7.4834 19.6922 7.4834 20.5215C7.48334 21.3507 6.85499 22.0225 6.08008 22.0225C5.30529 22.0223 4.67681 21.3506 4.67676 20.5215C4.67676 19.6923 5.30526 19.0197 6.08008 19.0195ZM6.08008 12.0127C6.85489 12.0127 7.48319 12.6846 7.4834 13.5137C7.4834 14.343 6.85502 15.0156 6.08008 15.0156C5.30526 15.0155 4.67676 14.3429 4.67676 13.5137C4.67696 12.6847 5.30539 12.0129 6.08008 12.0127ZM6.08008 5.00488C6.85502 5.00488 7.4834 5.67754 7.4834 6.50684C7.48337 7.3361 6.855 8.00879 6.08008 8.00879C5.30528 8.00863 4.67679 7.336 4.67676 6.50684C4.67676 5.67764 5.30526 5.00504 6.08008 5.00488Z" fill="#2A2A2A"/>
</svg>
